<svg width="41" height="40" viewBox="0 0 41 40" fill="none" xmlns="http://www.w3.org/2000/svg">
<path fill-rule="evenodd" clip-rule="evenodd" d="M20.5 39C23.637 39 26.5979 38.2794 29.2199 37H11.7801C14.4021 38.2794 17.363 39 20.5 39ZM9.97778 36H31.0222C33.3903 34.518 35.4067 32.5508 36.925 30.2439V9.75611C35.4067 7.44922 33.3903 5.48196 31.0222 4H9.97778C7.60966 5.48197 5.59328 7.44922 4.075 9.75611V30.2439C5.59328 32.5508 7.60966 34.518 9.97778 36ZM20.5 40C24.4651 40 28.1673 38.9017 31.3044 37H36.925H37.925V36V30.5408C39.8743 27.4803 41 23.8684 41 20C41 16.1316 39.8743 12.5197 37.925 9.45915V4V3H36.925H31.3044C28.1673 1.09827 24.4651 0 20.5 0C16.5349 0 12.8327 1.09827 9.69563 3H4.075H3.075V4V9.45915C1.12572 12.5197 0 16.1316 0 20C0 23.8684 1.12572 27.4803 3.075 30.5408V36V37H4.075H9.69563C12.8327 38.9017 16.5349 40 20.5 40ZM36.925 36V31.9694C35.7541 33.4964 34.3646 34.8546 32.802 36H36.925ZM40 20C40 23.0671 39.2529 25.9676 37.925 28.5361V11.4639C39.2529 14.0324 40 16.9329 40 20ZM36.925 4V8.03058C35.7541 6.50364 34.3646 5.14541 32.802 4H36.925ZM20.5 1C23.637 1 26.5979 1.7206 29.2199 3H11.7801C14.4021 1.7206 17.363 1 20.5 1ZM4.075 4H8.198C6.63535 5.14541 5.24595 6.50364 4.075 8.03058V4ZM1 20C1 16.9329 1.74714 14.0324 3.075 11.4639V28.5361C1.74714 25.9676 1 23.0671 1 20ZM4.075 36V31.9694C5.24595 33.4964 6.63535 34.8546 8.198 36H4.075ZM21.0086 19.0712C22.2371 19.0712 23.4069 19.606 24.2231 20.541L25.5161 22.0221C26.0459 22.629 26.7309 23.074 27.4948 23.3075C29.3139 23.8631 30.5598 25.5679 30.5596 27.5017V28.1661C30.5596 29.4955 29.8835 30.7299 28.7729 31.4288C27.6623 32.1278 26.2755 32.1914 25.1078 31.597L22.8058 30.4255C21.2913 29.654 19.5086 29.654 17.9943 30.4255L15.6923 31.597C14.5243 32.1914 13.1376 32.1278 12.0271 31.4288C10.9165 30.7299 10.2405 29.4955 10.2403 28.1661V27.5017C10.2403 25.5679 11.486 23.8631 13.305 23.3075C14.0689 23.074 14.754 22.629 15.2837 22.0221L16.577 20.541C17.3931 19.606 18.5628 19.0712 19.7912 19.0712H21.0086ZM21.3805 14.656C21.1235 16.1953 21.7437 17.5871 22.7659 17.7629C23.7883 17.9388 24.8245 16.8358 25.0815 15.2965C25.3383 13.7573 24.7183 12.3655 23.6959 12.1896C22.6735 12.0138 21.6373 13.1168 21.3805 14.656ZM28.0452 21.0974C27.102 20.6402 26.8967 19.0743 27.5858 17.5991C28.2737 16.1242 29.5992 15.2983 30.5419 15.7557C31.4845 16.213 31.6898 17.779 31.0007 19.2539C30.3115 20.7289 28.9883 21.5548 28.0452 21.0974ZM12.7607 21.0969C13.7038 20.6396 13.9091 19.0736 13.22 17.5987C12.5308 16.1237 11.2072 15.2982 10.2641 15.7552C9.32089 16.212 9.11559 17.778 9.80512 19.2539C10.4946 20.7298 11.8175 21.5543 12.7607 21.0969ZM15.7201 15.2965C15.4631 13.7576 16.0834 12.3664 17.1057 12.1896C18.1276 12.0128 19.1642 13.1168 19.4212 14.656C19.6782 16.1952 19.0576 17.5857 18.0356 17.7629C17.0138 17.9401 15.9771 16.8354 15.7201 15.2965ZM25.3562 11.1146C25.1085 9.66936 24.5366 7.89858 24.0833 7.1921C23.988 7.04543 23.8143 6.97275 23.6452 7.00938C23.4762 7.046 23.3464 7.18409 23.3179 7.35766C23.2881 7.53645 23.2545 7.75093 23.2177 7.98573C23.0892 8.80601 22.9218 9.87425 22.74 10.5347C22.9817 10.4718 23.2299 10.4394 23.4792 10.4382C23.647 10.4382 23.8145 10.4525 23.9799 10.4813C24.4838 10.5708 24.9573 10.7886 25.3562 11.1146ZM31.8 14.5374C31.6355 14.4062 31.4578 14.2931 31.2695 14.2004C30.8668 14.0056 30.426 13.9055 29.9802 13.9074C29.6602 13.9091 29.3424 13.9578 29.0361 14.0518C29.4158 12.8441 29.7258 11.615 29.9648 10.3706C30 10.1913 30.1433 10.0548 30.3213 10.0303C30.4994 10.0061 30.6729 10.0998 30.7531 10.2634C31.3341 11.6184 31.688 13.0632 31.8 14.5374ZM10.8256 13.9057C11.1431 13.9074 11.4588 13.9553 11.763 14.0478C11.3837 12.841 11.0738 11.6128 10.835 10.3694C10.7996 10.1902 10.6565 10.0536 10.4783 10.0294C10.3004 10.0053 10.1269 10.099 10.0467 10.2624C9.46474 11.6186 9.11089 13.0647 9 14.5404C9.16615 14.4077 9.34598 14.2936 9.5363 14.2004C9.93904 14.005 10.3796 13.9041 10.8256 13.9057ZM15.4442 11.1177C15.6913 9.6725 16.2632 7.90134 16.717 7.19543C16.8122 7.04856 16.9859 6.97608 17.155 7.01251C17.324 7.04894 17.4538 7.18703 17.4824 7.36041C17.5123 7.53938 17.5459 7.75415 17.5828 7.98927C17.7113 8.8098 17.8786 9.87811 18.0601 10.5371C17.8191 10.4743 17.5712 10.4421 17.3225 10.4412C17.1548 10.441 16.9875 10.4555 16.8225 10.4841C16.3179 10.5735 15.8436 10.7915 15.4442 11.1177Z" fill="#E9E918"/>
</svg>
