<svg width="41" height="40" viewBox="0 0 41 40" fill="none" xmlns="http://www.w3.org/2000/svg">
<path fill-rule="evenodd" clip-rule="evenodd" d="M29.2199 37C26.5979 38.2794 23.637 39 20.5 39C17.363 39 14.4021 38.2794 11.7801 37H29.2199ZM31.0222 36H9.97778C7.60966 34.518 5.59328 32.5508 4.075 30.2439V9.75611C5.59328 7.44922 7.60966 5.48197 9.97778 4H31.0222C33.3903 5.48196 35.4067 7.44922 36.925 9.75611V30.2439C35.4067 32.5508 33.3903 34.518 31.0222 36ZM31.3044 37C28.1673 38.9017 24.4651 40 20.5 40C16.5349 40 12.8327 38.9017 9.69563 37H4.075H3.075V36V30.5408C1.12572 27.4803 0 23.8684 0 20C0 16.1316 1.12572 12.5197 3.075 9.45915V4V3H4.075H9.69563C12.8327 1.09827 16.5349 0 20.5 0C24.4651 0 28.1673 1.09827 31.3044 3H36.925H37.925V4V9.45915C39.8743 12.5197 41 16.1316 41 20C41 23.8684 39.8743 27.4803 37.925 30.5408V36V37H36.925H31.3044ZM36.925 31.9694V36H32.802C34.3646 34.8546 35.7541 33.4964 36.925 31.9694ZM37.925 28.5361C39.2529 25.9676 40 23.0671 40 20C40 16.9329 39.2529 14.0324 37.925 11.4639V28.5361ZM36.925 8.03058V4H32.802C34.3646 5.14541 35.7541 6.50364 36.925 8.03058ZM29.2199 3C26.5979 1.7206 23.637 1 20.5 1C17.363 1 14.4021 1.7206 11.7801 3H29.2199ZM8.198 4H4.075V8.03058C5.24595 6.50364 6.63535 5.14541 8.198 4ZM3.075 11.4639C1.74714 14.0324 1 16.9329 1 20C1 23.0671 1.74714 25.9676 3.075 28.5361V11.4639ZM4.075 31.9694V36H8.198C6.63535 34.8546 5.24595 33.4964 4.075 31.9694ZM29.0054 10.3268C23.1524 10.3268 20.5353 7.17339 20.5101 7.14254C20.358 6.95249 20.0475 6.95249 19.8955 7.14254C19.8699 7.17422 17.2799 10.3268 11.4001 10.3268C11.1793 10.3268 11 10.5136 11 10.7436V18.6981C11 23.0465 12.8766 27.179 16.0199 29.7518C17.2871 30.7892 18.6559 31.5398 20.0887 31.9825C20.1259 31.9942 20.1643 32 20.2028 32C20.2412 32 20.2792 31.9942 20.3168 31.9825C21.7496 31.5394 23.1184 30.7892 24.3856 29.7518C27.529 27.1785 29.4055 23.0465 29.4055 18.6981V10.7436C29.4055 10.5136 29.2263 10.3268 29.0054 10.3268ZM28.6053 18.6981C28.6053 22.7926 26.8432 26.6801 23.8911 29.0966C22.7375 30.0411 21.4971 30.7304 20.2028 31.1476C18.9084 30.7309 17.668 30.0411 16.5145 29.0966C13.5624 26.6805 11.8002 22.7926 11.8002 18.6981V11.1558C16.6985 11.0425 19.3485 8.86473 20.2028 8.01114C21.057 8.86514 23.707 11.0425 28.6053 11.1558V18.6981ZM13.7504 12.6763C16.7117 12.2829 18.7715 11.1825 19.9779 10.3285C20.1135 10.2322 20.292 10.2322 20.4276 10.3285C21.634 11.1825 23.6938 12.2829 26.6551 12.6763C26.8552 12.703 27.0048 12.8801 27.0048 13.0898V18.6985C27.0048 22.2859 25.4711 25.6831 22.9024 27.7863C22.0925 28.449 21.2331 28.9683 20.3488 29.3296C20.302 29.3488 20.2524 29.3584 20.2028 29.3584C20.1531 29.3584 20.1039 29.3488 20.0567 29.3296C19.1716 28.9679 18.3126 28.4485 17.5035 27.7863C14.9344 25.6831 13.4007 22.2859 13.4007 18.6985V13.0898C13.4007 12.8801 13.5504 12.703 13.7504 12.6763Z" fill="#8D7EFF"/>
</svg>
