<svg width="41" height="40" viewBox="0 0 41 40" fill="none" xmlns="http://www.w3.org/2000/svg">
<path fill-rule="evenodd" clip-rule="evenodd" d="M29.2199 37C26.5979 38.2794 23.637 39 20.5 39C17.363 39 14.4021 38.2794 11.7801 37H29.2199ZM31.0222 36H9.97778C7.60966 34.518 5.59328 32.5508 4.075 30.2439V9.75611C5.59328 7.44922 7.60966 5.48197 9.97778 4H31.0222C33.3903 5.48196 35.4067 7.44922 36.925 9.75611V30.2439C35.4067 32.5508 33.3903 34.518 31.0222 36ZM31.3044 37C28.1673 38.9017 24.4651 40 20.5 40C16.5349 40 12.8327 38.9017 9.69563 37H4.075H3.075V36V30.5408C1.12572 27.4803 0 23.8684 0 20C0 16.1316 1.12572 12.5197 3.075 9.45915V4V3H4.075H9.69563C12.8327 1.09827 16.5349 0 20.5 0C24.4651 0 28.1673 1.09827 31.3044 3H36.925H37.925V4V9.45915C39.8743 12.5197 41 16.1316 41 20C41 23.8684 39.8743 27.4803 37.925 30.5408V36V37H36.925H31.3044ZM36.925 31.9694V36H32.802C34.3646 34.8546 35.7541 33.4964 36.925 31.9694ZM37.925 28.5361C39.2529 25.9676 40 23.0671 40 20C40 16.9329 39.2529 14.0324 37.925 11.4639V28.5361ZM36.925 8.03058V4H32.802C34.3646 5.14541 35.7541 6.50364 36.925 8.03058ZM29.2199 3C26.5979 1.7206 23.637 1 20.5 1C17.363 1 14.4021 1.7206 11.7801 3H29.2199ZM8.198 4H4.075V8.03058C5.24595 6.50364 6.63535 5.14541 8.198 4ZM3.075 11.4639C1.74714 14.0324 1 16.9329 1 20C1 23.0671 1.74714 25.9676 3.075 28.5361V11.4639ZM4.075 31.9694V36H8.198C6.63535 34.8546 5.24595 33.4964 4.075 31.9694ZM32.5833 19.0833H31.7396C31.5242 13.2112 26.7887 8.47583 20.9167 8.26042V7.41667C20.9167 7.18625 20.7304 7 20.5 7C20.2696 7 20.0833 7.18625 20.0833 7.41667V8.26042C14.2112 8.47583 9.47583 13.2112 9.26042 19.0833H8.41667C8.18625 19.0833 8 19.2696 8 19.5C8 19.7304 8.18625 19.9167 8.41667 19.9167H9.26042C9.47583 25.7887 14.2112 30.5242 20.0833 30.7396V31.5833C20.0833 31.8137 20.2696 32 20.5 32C20.7304 32 20.9167 31.8137 20.9167 31.5833V30.7396C26.7887 30.5242 31.5242 25.7887 31.7396 19.9167H32.5833C32.8138 19.9167 33 19.7304 33 19.5C33 19.2696 32.8138 19.0833 32.5833 19.0833ZM20.9167 29.9062V29.0833C20.9167 28.8529 20.7304 28.6667 20.5 28.6667C20.2696 28.6667 20.0833 28.8529 20.0833 29.0833V29.9062C14.6708 29.6917 10.3083 25.3292 10.0938 19.9167H10.9167C11.1471 19.9167 11.3333 19.7304 11.3333 19.5C11.3333 19.2696 11.1471 19.0833 10.9167 19.0833H10.0938C10.3083 13.6708 14.6708 9.30833 20.0833 9.09375V9.91667C20.0833 10.1471 20.2696 10.3333 20.5 10.3333C20.7304 10.3333 20.9167 10.1471 20.9167 9.91667V9.09375C26.3292 9.30833 30.6917 13.6708 30.9062 19.0833H30.0833C29.8529 19.0833 29.6667 19.2696 29.6667 19.5C29.6667 19.7304 29.8529 19.9167 30.0833 19.9167H30.9062C30.6917 25.3292 26.3292 29.6917 20.9167 29.9062ZM23.3833 19.0833H25.5C25.7304 19.0833 25.9167 19.2696 25.9167 19.5C25.9167 19.7304 25.7304 19.9167 25.5 19.9167H23.3833C23.1996 21.1908 22.1913 22.1996 20.9167 22.3833V24.5C20.9167 24.7304 20.7304 24.9167 20.5 24.9167C20.2696 24.9167 20.0833 24.7304 20.0833 24.5V22.3833C18.8088 22.1996 17.8004 21.1912 17.6167 19.9167H15.5C15.2696 19.9167 15.0833 19.7304 15.0833 19.5C15.0833 19.2696 15.2696 19.0833 15.5 19.0833H17.6167C17.8004 17.8092 18.8088 16.8004 20.0833 16.6167V14.5C20.0833 14.2696 20.2696 14.0833 20.5 14.0833C20.7304 14.0833 20.9167 14.2696 20.9167 14.5V16.6167C22.1913 16.8004 23.1996 17.8088 23.3833 19.0833Z" fill="#FF000C"/>
</svg>
