<svg width="41" height="40" viewBox="0 0 41 40" fill="none" xmlns="http://www.w3.org/2000/svg">
<path fill-rule="evenodd" clip-rule="evenodd" d="M20.5 39C23.637 39 26.5979 38.2794 29.2199 37H11.7801C14.4021 38.2794 17.363 39 20.5 39ZM9.97778 36H31.0222C33.4296 34.4935 35.4734 32.4855 37 30.129V9.87097C35.4734 7.51449 33.4296 5.5065 31.0222 4H9.97778C7.57045 5.5065 5.52661 7.51449 4 9.87097V30.129C5.52661 32.4855 7.57045 34.4935 9.97778 36ZM20.5 40C24.4651 40 28.1673 38.9017 31.3044 37H37H38V36V30.4222C39.9031 27.3871 41 23.8185 41 20C41 16.1815 39.9031 12.6129 38 9.57783V4V3H37H31.3044C28.1673 1.09827 24.4651 0 20.5 0C16.5349 0 12.8327 1.09827 9.69563 3H4H3V4V9.57783C1.09688 12.6129 0 16.1815 0 20C0 23.8185 1.09688 27.3871 3 30.4222V36V37H4H9.69563C12.8327 38.9017 16.5349 40 20.5 40ZM37 36V31.871C35.8135 33.438 34.3981 34.83 32.802 36H37ZM40 20C40 23.0089 39.281 25.8574 38 28.3894V11.6106C39.281 14.1426 40 16.9911 40 20ZM37 4V8.12901C35.8135 6.56197 34.3981 5.16997 32.802 4H37ZM20.5 1C23.637 1 26.5979 1.7206 29.2199 3H11.7801C14.4021 1.7206 17.363 1 20.5 1ZM4 4H8.198C6.60185 5.16997 5.18646 6.56197 4 8.12901V4ZM1 20C1 16.9911 1.71904 14.1426 3 11.6106V28.3894C1.71904 25.8574 1 23.0089 1 20ZM4 36V31.871C5.18646 33.438 6.60185 34.83 8.198 36H4ZM13.2707 24.0063C12.6406 23.7792 11.976 23.6643 11.3068 23.6666C9.32888 23.6666 8 25.6054 8 27.4167C8 30.548 9.33512 31.8921 12.5734 31.9912H12.5766L12.6593 31.9933C12.7577 31.9968 12.8565 32 12.9603 32H15.4404C18.2214 32 32.2394 16.0908 32.3804 15.9304C32.966 15.2579 32.9352 14.243 32.3098 13.608L31.2186 12.5033L26.1462 7.36717C25.915 7.13123 25.5995 6.99905 25.2707 7.00001C24.9422 6.99924 24.6272 7.1318 24.3965 7.36755L24.2482 7.51747C23.8302 7.94472 23.7655 8.60809 24.0926 9.10915C24.7288 10.0804 24.5197 11.0083 23.4152 12.122C22.4005 13.143 20.9753 12.4494 19.7157 11.8364L19.7128 11.8349L19.6528 11.8054C19.1622 11.5286 18.55 11.6047 18.1408 11.9933L15.6003 14.5663C15.3121 14.8581 15.185 15.2745 15.2607 15.6792C15.4202 16.548 16.0616 20.9647 13.2707 24.0063ZM31.7609 15.3784C27.0874 20.7118 17.1765 31.1667 15.4404 31.1667H14.0928C15.0117 30.596 15.6055 30.1677 15.677 30.1162L15.677 30.1162L15.677 30.1162L15.6826 30.1121C19.5243 27.5591 28.853 17.2892 31.1395 14.6796C31.316 14.4783 31.4422 14.2374 31.5075 13.9771L31.724 14.1962C31.7631 14.2357 31.7983 14.279 31.829 14.3254C32.0472 14.651 32.0191 15.0841 31.7609 15.3784ZM15.213 29.4262C14.3318 30.0492 13.42 30.6267 12.4809 31.1568C9.79606 31.053 8.82669 30.0341 8.82669 27.4167C8.82669 26.0371 9.84525 24.4999 11.3068 24.4999C11.9533 24.4904 12.5946 24.6182 13.1889 24.8751C13.6317 25.1223 13.9965 25.49 14.2421 25.9364C14.3441 26.1422 14.5925 26.2257 14.7967 26.1229C15.0011 26.0201 15.0839 25.7697 14.982 25.5639C14.739 25.1194 14.4084 24.7302 14.0107 24.4196C16.9124 21.0925 16.2423 16.4524 16.0717 15.5266C16.0457 15.3914 16.0879 15.252 16.1844 15.1541L18.7266 12.583C18.9126 12.3946 19.2072 12.5155 19.2937 12.5571L19.3533 12.5863L19.3586 12.5888C20.7156 13.2482 22.5722 14.1503 23.9997 12.7112C25.3766 11.3238 25.6395 9.95716 24.7821 8.64967C24.6697 8.47896 24.6907 8.25218 24.8326 8.1055L24.981 7.95502C25.0574 7.87739 25.1617 7.8339 25.2703 7.83409C25.3791 7.83371 25.4834 7.87758 25.5596 7.9554L30.4683 12.925L30.4708 12.9281L30.4733 12.9317L30.4752 12.9348L30.477 12.9379L30.4791 12.9409C30.4803 12.9426 30.4816 12.9443 30.4831 12.9458C30.8017 13.2687 30.8178 13.7852 30.52 14.1276C28.2486 16.7201 18.9953 26.9143 15.213 29.4262ZM17.0938 15.7501C17.0938 15.9803 17.2789 16.1668 17.5071 16.1668C17.7355 16.1668 17.9205 15.9803 17.9205 15.7501C17.9205 15.52 17.7355 15.3335 17.5071 15.3335C17.2789 15.3335 17.0938 15.52 17.0938 15.7501ZM17.5071 18.25C17.2789 18.25 17.0938 18.0635 17.0938 17.8335C17.0938 17.6032 17.2789 17.4167 17.5071 17.4167C17.7355 17.4167 17.9205 17.6032 17.9205 17.8335C17.9205 18.0635 17.7355 18.25 17.5071 18.25ZM29.4944 28.6668C29.4944 28.8968 29.3094 29.0834 29.081 29.0834H25.7742C25.546 29.0834 25.3609 28.8968 25.3609 28.6668C25.3609 28.4366 25.546 28.2501 25.7742 28.2501H29.081C29.3094 28.2501 29.4944 28.4366 29.4944 28.6668ZM31.5612 26.5834H28.2543C28.0261 26.5834 27.841 26.77 27.841 27.0002C27.841 27.2302 28.0261 27.4167 28.2543 27.4167H31.5612C31.7894 27.4167 31.9745 27.2302 31.9745 27.0002C31.9745 26.77 31.7894 26.5834 31.5612 26.5834Z" fill="#0ED59B"/>
</svg>
