<svg width="41" height="40" viewBox="0 0 41 40" fill="none" xmlns="http://www.w3.org/2000/svg">
<path fill-rule="evenodd" clip-rule="evenodd" d="M20.5 39C23.637 39 26.5979 38.2794 29.2199 37H11.7801C14.4021 38.2794 17.363 39 20.5 39ZM9.97778 36H31.0222C33.3903 34.518 35.4067 32.5508 36.925 30.2439V9.75611C35.4067 7.44922 33.3903 5.48196 31.0222 4H9.97778C7.60966 5.48197 5.59328 7.44922 4.075 9.75611V30.2439C5.59328 32.5508 7.60966 34.518 9.97778 36ZM20.5 40C24.4651 40 28.1673 38.9017 31.3044 37H36.925H37.925V36V30.5408C39.8743 27.4803 41 23.8684 41 20C41 16.1316 39.8743 12.5197 37.925 9.45915V4V3H36.925H31.3044C28.1673 1.09827 24.4651 0 20.5 0C16.5349 0 12.8327 1.09827 9.69563 3H4.075H3.075V4V9.45915C1.12572 12.5197 0 16.1316 0 20C0 23.8684 1.12572 27.4803 3.075 30.5408V36V37H4.075H9.69563C12.8327 38.9017 16.5349 40 20.5 40ZM36.925 36V31.9694C35.7541 33.4964 34.3646 34.8546 32.802 36H36.925ZM40 20C40 23.0671 39.2529 25.9676 37.925 28.5361V11.4639C39.2529 14.0324 40 16.9329 40 20ZM36.925 4V8.03058C35.7541 6.50364 34.3646 5.14541 32.802 4H36.925ZM20.5 1C23.637 1 26.5979 1.7206 29.2199 3H11.7801C14.4021 1.7206 17.363 1 20.5 1ZM4.075 4H8.198C6.63535 5.14541 5.24595 6.50364 4.075 8.03058V4ZM1 20C1 16.9329 1.74714 14.0324 3.075 11.4639V28.5361C1.74714 25.9676 1 23.0671 1 20ZM4.075 36V31.9694C5.24595 33.4964 6.63535 34.8546 8.198 36H4.075ZM26.4204 9.0005C23.7393 9.0005 21.4343 10.6715 20.4252 13.063C19.4162 10.6715 17.2612 9 14.5796 9C10.9681 9 8.36701 12.0895 8.04 15.7715C8.04 15.7715 7.8635 16.6855 8.25201 18.331C8.78102 20.572 10.0245 22.5635 11.7011 24.0825L20.4252 32L29.2989 24.083C30.9755 22.5635 32.219 20.5725 32.748 18.3315C33.1365 16.686 32.96 15.772 32.96 15.772C32.633 12.09 30.0319 9.0005 26.4204 9.0005Z" fill="#27CC4E"/>
</svg>
