<svg width="41" height="40" viewBox="0 0 41 40" fill="none" xmlns="http://www.w3.org/2000/svg">
<path fill-rule="evenodd" clip-rule="evenodd" d="M29.2199 37C26.5979 38.2794 23.637 39 20.5 39C17.363 39 14.4021 38.2794 11.7801 37H29.2199ZM31.0222 36H9.97778C7.60966 34.518 5.59328 32.5508 4.075 30.2439V9.75611C5.59328 7.44922 7.60966 5.48197 9.97778 4H31.0222C33.3903 5.48196 35.4067 7.44922 36.925 9.75611V30.2439C35.4067 32.5508 33.3903 34.518 31.0222 36ZM31.3044 37C28.1673 38.9017 24.4651 40 20.5 40C16.5349 40 12.8327 38.9017 9.69563 37H4.075H3.075V36V30.5408C1.12572 27.4803 0 23.8684 0 20C0 16.1316 1.12572 12.5197 3.075 9.45915V4V3H4.075H9.69563C12.8327 1.09827 16.5349 0 20.5 0C24.4651 0 28.1673 1.09827 31.3044 3H36.925H37.925V4V9.45915C39.8743 12.5197 41 16.1316 41 20C41 23.8684 39.8743 27.4803 37.925 30.5408V36V37H36.925H31.3044ZM36.925 31.9694V36H32.802C34.3646 34.8546 35.7541 33.4964 36.925 31.9694ZM37.925 28.5361C39.2529 25.9676 40 23.0671 40 20C40 16.9329 39.2529 14.0324 37.925 11.4639V28.5361ZM36.925 8.03058V4H32.802C34.3646 5.14541 35.7541 6.50364 36.925 8.03058ZM29.2199 3C26.5979 1.7206 23.637 1 20.5 1C17.363 1 14.4021 1.7206 11.7801 3H29.2199ZM8.198 4H4.075V8.03058C5.24595 6.50364 6.63535 5.14541 8.198 4ZM3.075 11.4639C1.74714 14.0324 1 16.9329 1 20C1 23.0671 1.74714 25.9676 3.075 28.5361V11.4639ZM4.075 31.9694V36H8.198C6.63535 34.8546 5.24595 33.4964 4.075 31.9694ZM30.8935 19.6017C31.5391 16.2082 30.4851 11.5434 26.6448 9.32045C24.2192 8.00366 21.3583 7.65526 18.6712 8.34945C14.9491 9.31267 12.2132 11.8974 11.3529 15.2635C11.1611 15.9463 11.0798 16.6537 11.112 17.3606C11.1532 17.7991 11.2368 18.233 11.3618 18.6564C11.53 19.1953 11.6133 19.7557 11.6088 20.3186C11.5914 20.9887 11.1145 21.684 10.6932 22.2975L10.6931 22.2976C10.2339 22.9671 9.83733 23.5452 10.0673 24.0784C10.2856 24.4398 10.6698 24.678 11.1003 24.7189C11.1251 24.7232 11.1502 24.7256 11.1754 24.7263C11.2904 24.7126 11.4058 24.7495 11.4897 24.827C11.5736 24.9044 11.6173 25.0141 11.6088 25.1259C11.6088 25.9569 11.6302 26.3857 11.9849 26.5823C11.9539 26.6448 11.9323 26.7113 11.9207 26.7797C11.8851 27.0143 11.9724 27.2506 12.1535 27.4102C12.3337 27.579 12.5619 27.6917 12.8088 27.7339C12.8172 27.7357 12.8254 27.7374 12.8334 27.739C12.842 27.7408 12.8505 27.7425 12.8588 27.7444C12.8686 27.8039 12.8729 27.864 12.8718 27.9243C12.8688 28.0729 12.8579 28.2214 12.8391 28.3691C12.7705 29.0087 12.6765 29.8848 13.9988 30.303C14.2642 30.3748 14.5393 30.4072 14.8147 30.3991C16.0668 30.3453 17.3043 30.1157 18.4882 29.7177C18.83 30.2945 19.0361 30.9373 19.0917 31.6001C19.0916 31.7061 19.1352 31.8079 19.2127 31.8829C19.2902 31.9579 19.3953 32 19.5049 32H29.8351C30.0118 31.9979 30.1672 31.8865 30.2208 31.7235C30.2752 31.5583 30.216 31.3779 30.0732 31.2732C29.6456 30.9591 28.2298 27.6493 28.1863 26.4604C28.3111 26.1862 28.4782 25.8784 28.6762 25.5207C29.754 23.6825 30.5036 21.6813 30.8935 19.6017ZM27.3568 26.4203C27.3673 27.3766 28.2582 29.9035 29.0235 31.2003H19.8831C19.7802 30.5876 19.5751 29.9952 19.2757 29.4462C20.4729 28.9921 21.5275 28.4083 22.0337 27.7676C22.1715 27.592 22.1365 27.3416 21.9555 27.2078C21.7745 27.0739 21.5157 27.107 21.3768 27.2818C20.2074 28.7625 15.3417 29.8868 14.2554 29.543C13.5674 29.3253 13.5948 29.0697 13.661 28.452L13.661 28.4519C13.683 28.2768 13.6953 28.1007 13.6982 27.9244C13.6982 27.2505 13.4173 27.0494 12.9952 26.9547C12.9155 26.9437 12.8395 26.9153 12.7728 26.8715C12.854 26.7965 12.946 26.7334 13.046 26.6843C13.2185 26.6023 13.3099 26.416 13.2664 26.2349C13.2229 26.0537 13.0562 25.9255 12.864 25.9253H12.8639C12.7147 25.9253 12.5489 25.9253 12.4617 25.9148C12.4355 25.6526 12.4266 25.3892 12.4351 25.126C12.4432 24.8107 12.3193 24.5055 12.0916 24.2799C11.864 24.0542 11.5517 23.927 11.2257 23.9273C10.9279 23.8666 10.8375 23.7885 10.8299 23.7703C10.7698 23.6318 11.1667 23.0536 11.3808 22.7416L11.3819 22.74C11.8407 22.0715 12.4117 21.2393 12.4351 20.339C12.4467 19.8394 12.3892 19.3406 12.2643 18.8557C12.7149 18.472 13.2466 18.1883 13.8224 18.0243C14.0276 17.9896 14.2384 18.0039 14.4366 18.0659C14.6565 18.1245 14.884 17.9995 14.9446 17.7867C15.0052 17.5738 14.876 17.3537 14.6561 17.295C14.3307 17.1981 13.9857 17.1798 13.6513 17.2417C13.0674 17.3856 12.5217 17.6479 12.0502 18.0112C11.9938 17.7782 11.9556 17.5415 11.936 17.303C11.908 16.6798 11.9819 16.0563 12.1551 15.4555C12.954 12.3304 15.4067 10.022 18.885 9.12185C21.3559 8.48057 23.9878 8.79814 26.2203 10.007C29.7224 12.0339 30.6764 16.3263 30.0808 19.4568C29.7094 21.4559 28.988 23.3791 27.9477 25.1433C27.7205 25.5535 27.5244 25.9078 27.3828 26.2355C27.3589 26.2942 27.3499 26.3576 27.3568 26.4203ZM27.1704 19.2264C27.7997 19.3398 28.236 19.8986 28.1769 20.5154C28.1178 21.1323 27.5827 21.6039 26.9425 21.6035C26.7122 21.6028 26.4867 21.5393 26.2918 21.4204L25.2678 22.2125C25.1773 22.7134 24.7696 23.1042 24.2512 23.187C23.7328 23.2698 23.2169 23.0265 22.9649 22.5803C22.7129 22.1341 22.7798 21.5826 23.1317 21.205L21.7599 19.1857C21.1706 19.2896 20.5926 18.9558 20.4074 18.4044H18.189C18.0196 18.87 17.5724 19.1872 17.0627 19.2035C16.553 19.2198 16.0851 18.9318 15.8844 18.4781C15.6836 18.0243 15.7911 17.4979 16.155 17.1522L15.4917 15.5674C14.9239 15.4344 14.5298 14.9349 14.5469 14.3699C14.5639 13.8048 14.9876 13.3284 15.5624 13.2279L16.3646 12.194C16.0505 11.6677 16.1949 10.9971 16.7002 10.6361C17.2055 10.2752 17.9103 10.3392 18.3374 10.7849L19.9746 10.468C20.1277 9.95553 20.6141 9.60389 21.1654 9.60712C21.7167 9.61036 22.1986 9.96772 22.3453 10.482L23.5703 10.7783C23.9194 10.4235 24.4568 10.3105 24.9266 10.4929C25.3965 10.6754 25.704 11.1165 25.7029 11.6064C25.7017 11.7483 25.6743 11.8888 25.6219 12.0213L26.3142 12.5775C26.8467 12.267 27.5347 12.3882 27.92 12.8604C28.3054 13.3325 28.2678 14.0083 27.8323 14.4377L28.4531 15.636C28.9766 15.7485 29.3656 16.1746 29.4162 16.6912C29.4669 17.2079 29.1677 17.6972 28.6755 17.903C28.1832 18.1088 27.61 17.984 27.2561 17.5942L26.4898 17.8907C26.4648 17.9862 26.4276 18.0784 26.3791 18.165L27.1704 19.2264ZM28.5923 16.75C28.5641 16.552 28.3889 16.4045 28.1822 16.405C27.9541 16.4052 27.7692 16.5841 27.769 16.8048C27.7696 16.8542 27.7798 16.9029 27.799 16.9486L27.8016 16.9525C27.8025 16.9545 27.8026 16.9566 27.8028 16.9587C27.8029 16.9603 27.8031 16.962 27.8038 16.9636C27.8858 17.1471 28.0954 17.2438 28.2944 17.1899C28.4934 17.136 28.6207 16.9481 28.5923 16.75ZM26.9426 13.2059C26.7467 13.2058 26.5777 13.3389 26.538 13.5245C26.4983 13.7102 26.599 13.8972 26.7789 13.9722C26.7807 13.9729 26.7824 13.9731 26.7842 13.9732C26.7862 13.9734 26.7882 13.9735 26.7901 13.9743L26.7936 13.9765C26.841 13.9952 26.8915 14.005 26.9426 14.0057C27.1708 14.0057 27.3558 13.8266 27.3558 13.6058C27.3558 13.3849 27.1708 13.2059 26.9426 13.2059ZM25.3634 16.3497L26.127 14.5021L26.119 14.4953C26.0932 14.4733 26.0676 14.4516 26.0441 14.4274L24.4069 14.7443C24.3391 14.9658 24.2064 15.1635 24.0249 15.3134L25.3634 16.3497ZM25.2331 18.0008C25.4376 18.028 25.6314 17.905 25.6871 17.7127C25.7427 17.5203 25.6431 17.3178 25.4537 17.2383C25.4499 17.237 25.446 17.2376 25.4423 17.2361L25.4388 17.2339C25.3914 17.2152 25.3409 17.2053 25.2898 17.2047C25.0616 17.2049 24.8768 17.3838 24.8766 17.6046C24.8764 17.8044 25.0287 17.9735 25.2331 18.0008ZM24.8765 11.6064C24.8765 11.3856 24.6915 11.2066 24.4633 11.2066C24.2352 11.2068 24.0504 11.3857 24.0501 11.6064C24.0501 11.8273 24.2352 12.0063 24.4633 12.0063C24.6915 12.0063 24.8765 11.8273 24.8765 11.6064ZM23.2327 11.521L22.2889 11.2926C22.2026 11.4778 22.0692 11.6387 21.9012 11.7606L23.4141 13.2246C23.8366 13.2877 24.1958 13.5569 24.3646 13.937L25.7104 13.6766C25.7098 13.6662 25.7083 13.6561 25.7068 13.646C25.7049 13.6328 25.703 13.6196 25.703 13.6059C25.7042 13.464 25.7316 13.3235 25.784 13.191L25.0917 12.6348C24.9021 12.7458 24.685 12.805 24.4634 12.8061C23.7791 12.8054 23.2245 12.2687 23.2238 11.6065C23.2238 11.589 23.2262 11.5722 23.2285 11.5554C23.2302 11.544 23.2318 11.5326 23.2327 11.521ZM23.2238 14.8055C23.452 14.8055 23.6369 14.6265 23.6369 14.4056C23.6369 14.1848 23.452 14.0057 23.2238 14.0057C22.9955 14.0057 22.8106 14.1848 22.8106 14.4056C22.8108 14.6264 22.9956 14.8052 23.2238 14.8055ZM21.5709 10.8067C21.5709 10.5858 21.3859 10.4068 21.1577 10.4068C20.9296 10.407 20.7447 10.5859 20.7445 10.8067C20.7445 11.0275 20.9295 11.2065 21.1577 11.2065C21.3859 11.2065 21.5709 11.0275 21.5709 10.8067ZM22.4802 13.4518L21.2396 12.2514L20.5428 13.3754C20.7933 13.5178 20.984 13.7409 21.0815 14.0057H22.0603C22.1413 13.7854 22.2873 13.5928 22.4802 13.4518ZM20.0169 11.2754L18.6711 11.5358C18.6717 11.5461 18.6732 11.5562 18.6746 11.5663C18.6766 11.5795 18.6785 11.5927 18.6785 11.6064C18.6778 11.8315 18.6112 12.0517 18.4862 12.2415L19.7829 13.0467L20.533 11.8369C20.3034 11.7079 20.1225 11.5111 20.0169 11.2754ZM19.9181 14.8055C20.1463 14.8055 20.3313 14.6265 20.3313 14.4056C20.3313 14.1848 20.1463 14.0057 19.9181 14.0057C19.6899 14.0057 19.5049 14.1848 19.5049 14.4056C19.5051 14.6264 19.69 14.8052 19.9181 14.8055ZM17.852 11.6064C17.852 11.3856 17.6671 11.2066 17.4389 11.2066C17.2107 11.2068 17.0259 11.3857 17.0257 11.6064C17.0257 11.8273 17.2106 12.0063 17.4389 12.0063C17.6671 12.0063 17.852 11.8273 17.852 11.6064ZM17.7808 12.7539C17.5211 12.8333 17.2409 12.8219 16.9891 12.7214L16.4611 13.4019C16.6878 13.546 16.8593 13.7582 16.9495 14.0057H18.7546C18.8174 13.8321 18.9208 13.6748 19.0566 13.546L17.7808 12.7539ZM15.3728 14.4056C15.3728 14.6265 15.5578 14.8055 15.786 14.8055C16.0142 14.8055 16.1992 14.6265 16.1992 14.4056C16.1992 14.1848 16.0142 14.0057 15.786 14.0057C15.5579 14.0059 15.373 14.1848 15.3728 14.4056ZM16.6124 18.0045C16.6124 18.2253 16.7974 18.4044 17.0256 18.4044C17.2537 18.4041 17.4386 18.2253 17.4388 18.0045C17.4388 17.7837 17.2538 17.6046 17.0256 17.6046C16.7974 17.6046 16.6124 17.7837 16.6124 18.0045ZM17.0256 16.8048C17.1045 16.8053 17.1832 16.8129 17.2606 16.8278L19.1277 15.3221C18.9579 15.1853 18.829 15.0069 18.7546 14.8055H16.9494C16.8428 15.0943 16.6258 15.3327 16.3431 15.4713L16.9062 16.8165C16.9198 16.8152 16.9334 16.8135 16.9469 16.8117C16.9728 16.8082 16.9987 16.8048 17.0256 16.8048ZM18.1891 17.6046H20.4074C20.4723 17.4266 20.5797 17.2659 20.7209 17.1357L20.0299 15.6358L18.0005 17.2724C18.0813 17.3726 18.145 17.4848 18.1891 17.6046ZM22.0603 14.8055H21.0815C21.0167 14.9835 20.9093 15.1442 20.7681 15.2744L21.4774 16.814C21.49 16.8131 21.5024 16.8115 21.5147 16.8098C21.5332 16.8073 21.5517 16.8049 21.5709 16.8049C21.6276 16.8066 21.684 16.8121 21.7399 16.8214L22.599 15.4358C22.3486 15.2933 22.1579 15.0702 22.0603 14.8055ZM21.1577 18.0045C21.1577 18.2253 21.3427 18.4044 21.5709 18.4044C21.799 18.4041 21.9839 18.2253 21.9841 18.0045C21.9841 17.7837 21.7991 17.6046 21.5709 17.6046C21.3427 17.6046 21.1577 17.7837 21.1577 18.0045ZM24.4887 16.6968L23.3347 15.8034L22.4753 17.1898C22.5743 17.291 22.6543 17.4081 22.7117 17.5359L24.1066 17.2659C24.1744 17.0445 24.3071 16.8468 24.4887 16.6968ZM23.6369 22.0033C23.6369 22.2241 23.8219 22.4031 24.0501 22.4031C24.2783 22.4029 24.4631 22.224 24.4633 22.0033C24.4633 21.7824 24.2784 21.6034 24.0501 21.6034C23.8219 21.6034 23.6369 21.7824 23.6369 22.0033ZM25.7764 20.7953C25.7293 20.6698 25.7045 20.5374 25.703 20.4038C25.7037 19.9945 25.9203 19.6141 26.2774 19.3949L25.7676 18.7111C25.1386 18.9663 24.4149 18.6811 24.1489 18.0733L22.7541 18.3432C22.7023 18.5136 22.6118 18.6706 22.4893 18.8029L23.861 20.8221C24.3369 20.7381 24.8181 20.9407 25.0789 21.3349L25.7764 20.7953ZM26.8938 14.8007L26.1054 16.7083C26.2236 16.8092 26.3209 16.931 26.392 17.0672L26.9475 16.8522C26.9472 16.8448 26.9461 16.8376 26.9451 16.8304C26.9438 16.822 26.9426 16.8136 26.9426 16.8049C26.9442 16.3669 27.1932 15.9648 27.5915 15.7568L27.0912 14.7909C27.042 14.7987 26.9923 14.8036 26.9426 14.8055C26.9335 14.8055 26.9248 14.8043 26.916 14.803C26.9087 14.802 26.9014 14.801 26.8938 14.8007ZM26.5294 20.4038C26.5294 20.6246 26.7144 20.8036 26.9426 20.8036C27.1708 20.8036 27.3558 20.6246 27.3558 20.4038C27.3558 20.1829 27.1708 20.0039 26.9426 20.0039C26.7145 20.0041 26.5296 20.183 26.5294 20.4038Z" fill="#1C8AFF"/>
</svg>
