<svg width="41" height="40" viewBox="0 0 41 40" fill="none" xmlns="http://www.w3.org/2000/svg">
<path fill-rule="evenodd" clip-rule="evenodd" d="M20.5 39C23.637 39 26.5979 38.2794 29.2199 37H11.7801C14.4021 38.2794 17.363 39 20.5 39ZM9.97778 36H31.0222C33.3903 34.518 35.4067 32.5508 36.925 30.2439V9.75611C35.4067 7.44922 33.3903 5.48196 31.0222 4H9.97778C7.60966 5.48197 5.59328 7.44922 4.075 9.75611V30.2439C5.59328 32.5508 7.60966 34.518 9.97778 36ZM20.5 40C24.4651 40 28.1673 38.9017 31.3044 37H36.925H37.925V36V30.5408C39.8743 27.4803 41 23.8684 41 20C41 16.1316 39.8743 12.5197 37.925 9.45915V4V3H36.925H31.3044C28.1673 1.09827 24.4651 0 20.5 0C16.5349 0 12.8327 1.09827 9.69563 3H4.075H3.075V4V9.45915C1.12572 12.5197 0 16.1316 0 20C0 23.8684 1.12572 27.4803 3.075 30.5408V36V37H4.075H9.69563C12.8327 38.9017 16.5349 40 20.5 40ZM36.925 36V31.9694C35.7541 33.4964 34.3646 34.8546 32.802 36H36.925ZM40 20C40 23.0671 39.2529 25.9676 37.925 28.5361V11.4639C39.2529 14.0324 40 16.9329 40 20ZM36.925 4V8.03058C35.7541 6.50364 34.3646 5.14541 32.802 4H36.925ZM20.5 1C23.637 1 26.5979 1.7206 29.2199 3H11.7801C14.4021 1.7206 17.363 1 20.5 1ZM4.075 4H8.198C6.63535 5.14541 5.24595 6.50364 4.075 8.03058V4ZM1 20C1 16.9329 1.74714 14.0324 3.075 11.4639V28.5361C1.74714 25.9676 1 23.0671 1 20ZM4.075 36V31.9694C5.24595 33.4964 6.63535 34.8546 8.198 36H4.075ZM32.2001 25.2071H32.6501C33.1471 25.2071 33.55 25.5652 33.5501 26.007V28.4068C33.5501 28.8486 33.1472 29.2067 32.6501 29.2067H8.35225C7.85522 29.2067 7.45231 28.8486 7.45231 28.4068V26.007C7.45231 25.5652 7.85522 25.2071 8.35225 25.2071H8.80219V17.5677C7.72883 17.3784 6.96699 16.5269 7.0011 15.5547C7.03522 14.5825 7.85538 13.7748 8.93987 13.6454C10.0244 13.516 11.0551 14.1027 11.3766 15.0325C11.698 15.9623 11.2157 16.9623 10.2366 17.3966C10.7484 17.777 11.3472 18.0537 11.9914 18.2077C13.0095 17.3766 13.7511 16.313 14.1355 15.1328C13.2865 14.9062 12.7495 14.1638 12.87 13.3832C12.9904 12.6026 13.7323 12.0161 14.6186 12.0009C15.5048 11.9858 16.2715 12.5465 16.4256 13.3224C16.5797 14.0984 16.0752 14.8585 15.2366 15.1139C15.5538 16.0868 16.1087 16.9855 16.8618 17.7457C18.9627 16.7218 19.7241 14.7812 19.9621 13.9412C18.858 13.6986 18.1312 12.7616 18.2687 11.7581C18.4062 10.7545 19.3646 10 20.502 10C21.6394 10 22.5979 10.7545 22.7353 11.7581C22.8728 12.7617 22.1461 13.6986 21.042 13.9412C21.2823 14.78 22.0476 16.719 24.1413 17.7433C24.8937 16.9832 25.448 16.0848 25.7648 15.1123C24.9263 14.8569 24.4219 14.0967 24.576 13.3208C24.7301 12.5449 25.4968 11.9842 26.383 11.9994C27.2692 12.0145 28.0111 12.6009 28.1316 13.3815C28.252 14.1621 27.7151 14.9044 26.8662 15.1311C27.2498 16.3119 27.9911 17.3763 29.0094 18.2077C29.6544 18.0545 30.2542 17.7783 30.7669 17.3981C29.7656 16.9657 29.2706 15.9473 29.6028 15.0028C29.9349 14.0583 30.9942 13.4717 32.0944 13.6231C33.1945 13.7745 34.0047 14.6184 34 15.6079C33.9986 16.5578 33.2469 17.3764 32.2001 17.5677V25.2071ZM31.7501 14.408C31.0046 14.408 30.4002 14.9453 30.4002 15.6079C30.4002 16.2706 31.0046 16.8078 31.7501 16.8078C32.4957 16.8078 33.1 16.2706 33.1 15.6079C33.1 14.9452 32.4956 14.408 31.7501 14.408ZM26.3507 12.8081C25.8536 12.8081 25.4507 13.1663 25.4507 13.6081C25.4507 14.0499 25.8536 14.408 26.3507 14.408C26.8477 14.408 27.2506 14.0499 27.2506 13.6081C27.2506 13.1663 26.8477 12.8081 26.3507 12.8081ZM26.3137 16.1474H26.312C25.9862 16.8492 25.5435 17.5033 24.9985 18.0877C25.7234 18.307 26.4849 18.4152 27.2505 18.4077C27.4796 18.4077 27.7005 18.398 27.9183 18.3813C27.2366 17.7285 26.693 16.9718 26.3137 16.1474ZM20.5011 10.8083C19.7556 10.8083 19.1513 11.3456 19.1513 12.0082C19.1513 12.6709 19.7556 13.2081 20.5011 13.2081C21.2466 13.2081 21.851 12.6709 21.851 12.0082C21.851 11.3455 21.2466 10.8083 20.5011 10.8083ZM14.6517 12.8081C14.1546 12.8081 13.7517 13.1663 13.7517 13.6081C13.7517 14.0499 14.1546 14.408 14.6517 14.408C15.1487 14.408 15.5516 14.0499 15.5516 13.6081C15.5516 13.1663 15.1487 12.8081 14.6517 12.8081ZM16.0038 18.0877C15.4583 17.5033 15.0149 16.8492 14.6886 16.1474C14.31 16.9717 13.7672 17.7284 13.0863 18.3813C13.304 18.398 13.5245 18.4077 13.754 18.4077C14.5189 18.4145 15.2795 18.3063 16.0038 18.0877ZM16.9122 18.6141C15.9219 19.0195 14.8419 19.2224 13.7517 19.2076C12.2893 19.259 10.8539 18.8465 9.70208 18.0437V19.2012C10.647 19.734 11.982 20.0075 13.6793 20.0071C19.1323 20.0071 20.0282 17.227 20.0637 17.107C20.0708 17.0919 20.0791 17.0774 20.0885 17.0634C20.0998 17.0346 20.1149 17.0071 20.1334 16.9814C20.1473 16.9664 20.1623 16.9522 20.1784 16.939C20.2029 16.9144 20.2309 16.8928 20.2617 16.8746C20.2795 16.8656 20.298 16.8577 20.3171 16.851C20.3404 16.8384 20.3651 16.8279 20.3908 16.8194H20.421C20.4437 16.817 20.4665 16.8162 20.4894 16.817C20.5244 16.8148 20.5596 16.8164 20.5942 16.8218H20.6136C20.63 16.8277 20.646 16.8347 20.6613 16.8426C20.7483 16.8682 20.8228 16.9198 20.8719 16.9886C20.8874 17.0109 20.9002 17.0347 20.9101 17.0594C20.9207 17.0755 20.9299 17.0924 20.9376 17.1098C20.9722 17.2258 21.868 20.0075 27.3211 20.0075C29.0202 20.0075 30.3552 19.734 31.3001 19.2012V18.0437C30.1484 18.8465 28.7129 19.2591 27.2505 19.2076C26.1607 19.2227 25.081 19.0203 24.0909 18.6153C24.0732 18.609 24.0559 18.6018 24.0391 18.5937C22.3958 17.835 21.133 16.5552 20.5011 15.008C19.8684 16.5569 18.6033 17.8374 16.9572 18.5953C16.952 18.5974 16.947 18.5997 16.942 18.6019C16.9323 18.6063 16.9227 18.6106 16.9122 18.6141ZM9.70208 22.4073H29.9503C30.1988 22.4073 30.4002 22.5864 30.4002 22.8073C30.4002 23.0282 30.1988 23.2072 29.9503 23.2072H9.70208V25.2071H31.3002V20.1163C30.0505 20.6133 28.6895 20.8497 27.3212 20.8075C23.0286 20.8075 21.2211 19.1924 20.5011 18.1545C19.7812 19.1924 17.9737 20.8075 13.6811 20.8075C12.3128 20.8497 10.9518 20.6133 9.70208 20.1163V22.4073ZM9.25214 14.408C8.50664 14.408 7.90225 14.9453 7.90225 15.6079C7.90225 16.2706 8.50659 16.8078 9.25214 16.8078C9.99768 16.8078 10.602 16.2706 10.602 15.6079C10.602 14.9452 9.99763 14.408 9.25214 14.408ZM23.2009 26.8069H32.6501V26.007H8.3522V26.8069H17.8014C18.0498 26.8069 18.2513 26.986 18.2513 27.2069C18.2513 27.4277 18.0499 27.6068 17.8014 27.6068H8.3522V28.4068H32.6501V27.6068H23.2009C22.9524 27.6068 22.751 27.4278 22.751 27.2069C22.751 26.986 22.9524 26.8069 23.2009 26.8069Z" fill="#FD44E7"/>
</svg>
