<svg width="41" height="40" viewBox="0 0 41 40" fill="none" xmlns="http://www.w3.org/2000/svg">
<path fill-rule="evenodd" clip-rule="evenodd" d="M29.2199 37C26.5979 38.2794 23.637 39 20.5 39C17.363 39 14.4021 38.2794 11.7801 37H29.2199ZM31.0222 36H9.97778C7.60966 34.518 5.59328 32.5508 4.075 30.2439V9.75611C5.59328 7.44922 7.60966 5.48197 9.97778 4H31.0222C33.3903 5.48196 35.4067 7.44922 36.925 9.75611V30.2439C35.4067 32.5508 33.3903 34.518 31.0222 36ZM31.3044 37C28.1673 38.9017 24.4651 40 20.5 40C16.5349 40 12.8327 38.9017 9.69563 37H4.075H3.075V36V30.5408C1.12572 27.4803 0 23.8684 0 20C0 16.1316 1.12572 12.5197 3.075 9.45915V4V3H4.075H9.69563C12.8327 1.09827 16.5349 0 20.5 0C24.4651 0 28.1673 1.09827 31.3044 3H36.925H37.925V4V9.45915C39.8743 12.5197 41 16.1316 41 20C41 23.8684 39.8743 27.4803 37.925 30.5408V36V37H36.925H31.3044ZM36.925 31.9694V36H32.802C34.3646 34.8546 35.7541 33.4964 36.925 31.9694ZM37.925 28.5361C39.2529 25.9676 40 23.0671 40 20C40 16.9329 39.2529 14.0324 37.925 11.4639V28.5361ZM36.925 8.03058V4H32.802C34.3646 5.14541 35.7541 6.50364 36.925 8.03058ZM29.2199 3C26.5979 1.7206 23.637 1 20.5 1C17.363 1 14.4021 1.7206 11.7801 3H29.2199ZM8.198 4H4.075V8.03058C5.24595 6.50364 6.63535 5.14541 8.198 4ZM3.075 11.4639C1.74714 14.0324 1 16.9329 1 20C1 23.0671 1.74714 25.9676 3.075 28.5361V11.4639ZM4.075 31.9694V36H8.198C6.63535 34.8546 5.24595 33.4964 4.075 31.9694ZM18.7 20C18.9485 20 19.15 19.8041 19.15 19.5625C19.15 19.3209 18.9485 19.125 18.7 19.125C18.4514 19.125 18.25 19.3209 18.25 19.5625C18.25 19.8041 18.4514 20 18.7 20ZM20.95 19.5625C20.95 19.8041 20.7485 20 20.5 20C20.2515 20 20.05 19.8041 20.05 19.5625C20.05 19.3209 20.2515 19.125 20.5 19.125C20.7485 19.125 20.95 19.3209 20.95 19.5625ZM17.8 20.875C18.0486 20.875 18.25 20.6791 18.25 20.4375C18.25 20.1959 18.0486 20 17.8 20C17.5515 20 17.35 20.1959 17.35 20.4375C17.35 20.6791 17.5515 20.875 17.8 20.875ZM20.05 20.4375C20.05 20.6791 19.8485 20.875 19.6 20.875C19.3515 20.875 19.15 20.6791 19.15 20.4375C19.15 20.1959 19.3515 20 19.6 20C19.8485 20 20.05 20.1959 20.05 20.4375ZM21.4 20.875C21.6485 20.875 21.85 20.6791 21.85 20.4375C21.85 20.1959 21.6485 20 21.4 20C21.1515 20 20.95 20.1959 20.95 20.4375C20.95 20.6791 21.1515 20.875 21.4 20.875ZM23.65 20.4375C23.65 20.6791 23.4485 20.875 23.2 20.875C22.9515 20.875 22.75 20.6791 22.75 20.4375C22.75 20.1959 22.9515 20 23.2 20C23.4485 20 23.65 20.1959 23.65 20.4375ZM22.3 20C22.5486 20 22.75 19.8041 22.75 19.5625C22.75 19.3209 22.5486 19.125 22.3 19.125C22.0515 19.125 21.85 19.3209 21.85 19.5625C21.85 19.8041 22.0515 20 22.3 20ZM10.6 17.8125H11.05V14.3125H13.3V25.6875H11.05V22.1875H10.6V22.625C10.6 22.8669 10.3989 23.0625 10.15 23.0625C9.90115 23.0625 9.7 22.8669 9.7 22.625V22.1875H9.25V22.625C9.25 22.8669 9.04885 23.0625 8.8 23.0625C8.55115 23.0625 8.35 22.8669 8.35 22.625V22.1875H7.79965C7.35865 22.1875 7 21.8388 7 21.4096V18.5899C7 18.1612 7.35865 17.8125 7.79965 17.8125H8.35V17.375C8.35 17.1331 8.55115 16.9375 8.8 16.9375C9.04885 16.9375 9.25 17.1331 9.25 17.375V17.8125H9.7V17.375C9.7 17.1331 9.90115 16.9375 10.15 16.9375C10.3989 16.9375 10.6 17.1331 10.6 17.375V17.8125ZM8.35 19.125V20.875H9.25V19.125H8.35ZM9.7 20.875H10.6V19.125H9.7V20.875ZM24.55 17.8125H16.45V13H13.75V27H16.45V22.1875H24.55V27H27.25V13H24.55V17.8125ZM22.75 21.3125C22.75 21.071 22.5484 20.875 22.3 20.875C22.0516 20.875 21.85 21.071 21.85 21.3125H20.95C20.95 21.071 20.7484 20.875 20.5 20.875C20.2516 20.875 20.05 21.071 20.05 21.3125H19.15C19.15 21.071 18.9484 20.875 18.7 20.875C18.4516 20.875 18.25 21.071 18.25 21.3125H16.45V18.6875H17.35C17.35 18.929 17.5516 19.125 17.8 19.125C18.0484 19.125 18.25 18.929 18.25 18.6875H19.15C19.15 18.929 19.3516 19.125 19.6 19.125C19.8484 19.125 20.05 18.929 20.05 18.6875H20.95C20.95 18.929 21.1516 19.125 21.4 19.125C21.6484 19.125 21.85 18.929 21.85 18.6875H22.75C22.75 18.929 22.9516 19.125 23.2 19.125C23.4484 19.125 23.65 18.929 23.65 18.6875H24.55V21.3125H22.75ZM32.65 17.8125H33.2004C33.6414 17.8125 34 18.1612 34 18.5904V21.4101C34 21.8388 33.6414 22.1875 33.2004 22.1875H32.65V22.625C32.65 22.8669 32.4489 23.0625 32.2 23.0625C31.9512 23.0625 31.75 22.8669 31.75 22.625V22.1875H31.3V22.625C31.3 22.8669 31.0989 23.0625 30.85 23.0625C30.6012 23.0625 30.4 22.8669 30.4 22.625V22.1875H29.95V25.6875H27.7V14.3125H29.95V17.8125H30.4V17.375C30.4 17.1331 30.6012 16.9375 30.85 16.9375C31.0989 16.9375 31.3 17.1331 31.3 17.375V17.8125H31.75V17.375C31.75 17.1331 31.9512 16.9375 32.2 16.9375C32.4489 16.9375 32.65 17.1331 32.65 17.375V17.8125ZM30.4 20.875H31.3V19.125H30.4V20.875ZM31.75 19.125V20.875H32.65V19.125H31.75Z" fill="#F85212"/>
</svg>
