<svg width="41" height="40" viewBox="0 0 41 40" fill="none" xmlns="http://www.w3.org/2000/svg">
<path fill-rule="evenodd" clip-rule="evenodd" d="M20.5 39C23.637 39 26.5979 38.2794 29.2199 37H11.7801C14.4021 38.2794 17.363 39 20.5 39ZM9.97778 36H31.0222C33.3903 34.518 35.4067 32.5508 36.925 30.2439V9.75611C35.4067 7.44922 33.3903 5.48196 31.0222 4H9.97778C7.60966 5.48197 5.59328 7.44922 4.075 9.75611V30.2439C5.59328 32.5508 7.60966 34.518 9.97778 36ZM20.5 40C24.4651 40 28.1673 38.9017 31.3044 37H36.925H37.925V36V30.5408C39.8743 27.4803 41 23.8684 41 20C41 16.1316 39.8743 12.5197 37.925 9.45915V4V3H36.925H31.3044C28.1673 1.09827 24.4651 0 20.5 0C16.5349 0 12.8327 1.09827 9.69563 3H4.075H3.075V4V9.45915C1.12572 12.5197 0 16.1316 0 20C0 23.8684 1.12572 27.4803 3.075 30.5408V36V37H4.075H9.69563C12.8327 38.9017 16.5349 40 20.5 40ZM36.925 36V31.9694C35.7541 33.4964 34.3646 34.8546 32.802 36H36.925ZM40 20C40 23.0671 39.2529 25.9676 37.925 28.5361V11.4639C39.2529 14.0324 40 16.9329 40 20ZM36.925 4V8.03058C35.7541 6.50364 34.3646 5.14541 32.802 4H36.925ZM20.5 1C23.637 1 26.5979 1.7206 29.2199 3H11.7801C14.4021 1.7206 17.363 1 20.5 1ZM4.075 4H8.198C6.63535 5.14541 5.24595 6.50364 4.075 8.03058V4ZM1 20C1 16.9329 1.74714 14.0324 3.075 11.4639V28.5361C1.74714 25.9676 1 23.0671 1 20ZM4.075 36V31.9694C5.24595 33.4964 6.63535 34.8546 8.198 36H4.075ZM11.146 25.553C10.5406 25.5837 9.94123 25.7722 9.42186 26.1229C7.96389 27.1224 7.54728 29.0415 8.54701 30.4808C8.63034 30.6007 8.75531 30.6407 8.92193 30.6807C9.0469 30.6807 9.21356 30.6007 9.2552 30.4808L10.4216 28.5617C11.0465 28.5218 11.588 28.8416 11.8796 29.3614L10.6715 31.3204C10.5882 31.4403 10.5882 31.6002 10.6715 31.7201C10.7549 31.8401 10.8798 31.9201 11.0048 31.9201H11.3381C12.2129 31.9201 13.0461 31.6002 13.6709 31.0005C14.2515 30.4434 14.5796 29.7249 14.6333 28.9555C16.1308 26.7999 17.2543 25.3226 18.1283 24.4838L20.6973 22.0182L29.5424 31.5203C29.8757 31.8401 30.3339 32 30.7505 32C31.1671 32 31.5836 31.8401 31.9169 31.5602L32.5001 31.0005C32.8334 30.6807 33 30.2809 33 29.8411C33 29.4013 32.8334 28.9615 32.5001 28.6417L23.6449 19.156L25.1685 17.7271C26.7098 16.2478 28.1678 15.2084 29.7925 14.4088C29.7993 14.4066 29.8055 14.4033 29.8121 14.4006C30.4016 14.3602 30.9837 14.1633 31.5004 13.8091C33 12.8096 33.375 10.8905 32.3752 9.45127C32.2919 9.33133 32.1669 9.2514 32.0419 9.29136C31.9169 9.29136 31.7503 9.37134 31.7086 9.49128L30.5006 11.4104C29.9174 11.4503 29.3342 11.1305 29.0842 10.6107L30.2506 8.61174C30.3339 8.4918 30.3339 8.33189 30.2506 8.21195C30.209 8.13198 30.084 8.052 29.959 8.01204C28.9592 7.93206 27.9595 8.25192 27.2513 8.93155C26.6594 9.49967 26.3305 10.2356 26.2868 11.0222C25.4545 12.5767 24.3731 13.9727 22.8356 15.4483L21.4368 16.7907L19.5864 14.8085C19.5196 14.7445 19.4526 14.7066 19.3644 14.6938C18.7107 13.9038 18.7318 12.8301 19.4614 12.1299C21.1277 10.5307 22.0858 10.5307 23.9188 10.5307H24.4603C24.6685 10.5307 24.8352 10.4108 24.8768 10.2109C24.9185 10.011 24.8352 9.85105 24.6269 9.77108C21.0443 8.21186 18.5865 8.01194 16.1704 9.0914C15.0457 9.57116 14.6291 9.97094 13.7543 10.8105L13.7543 10.8105L12.2546 12.2498C11.7964 12.6896 11.5048 13.2493 11.4215 13.809C11.3381 14.0489 11.3381 14.2488 11.3381 14.4087C11.3381 14.7286 11.3381 14.8085 11.0049 15.0884C10.8382 14.9685 10.6299 14.8485 10.4216 14.8485C10.2133 14.8485 10.005 14.9285 9.83842 15.0884L8.38039 16.4877C8.13045 16.7276 8.00548 17.0074 8.00548 17.3273C8.00548 17.6471 8.13045 17.9669 8.38039 18.1669L11.3381 21.0054C11.5464 21.2853 11.8796 21.4052 12.2129 21.4052C12.5462 21.4052 12.8794 21.2853 13.0877 21.0454L14.5457 19.6461C14.7123 19.4862 14.7957 19.2463 14.7957 19.0464C14.7957 18.8465 14.7123 18.6466 14.5457 18.5267C14.879 18.2468 14.9623 18.2468 15.2956 18.2468C15.4622 18.2468 15.6288 18.2468 15.8788 18.2069C16.21 18.1615 16.5411 18.0514 16.8495 17.8844L18.4763 19.632L15.7955 22.2049C14.9227 23.0425 13.428 24.1189 11.146 25.553ZM22.3773 9.73116C21.2526 9.8511 20.2528 10.2509 18.9198 11.4903C17.92 12.4498 17.8367 13.9691 18.7531 15.0485L16.9618 16.7676C16.6286 17.0875 16.2537 17.2874 15.7955 17.3273C15.5872 17.3673 15.4205 17.3673 15.2956 17.3673C14.8374 17.3673 14.5041 17.4073 14.0042 17.887C13.8376 18.0469 13.7543 18.2868 13.7543 18.4867C13.7126 18.7266 13.7959 18.9265 13.9626 19.0464L12.5045 20.4458C12.3379 20.6057 12.0879 20.6057 11.9213 20.4458L8.96362 17.6072C8.88028 17.5272 8.83864 17.4473 8.83864 17.3273C8.83864 17.2074 8.88028 17.1275 8.96362 17.0475L10.4216 15.6482C10.5466 15.8081 10.7549 15.8881 11.0049 15.8881C11.2132 15.8881 11.4631 15.8081 11.6297 15.6482C12.1296 15.1684 12.1713 14.8486 12.1713 14.4088C12.1713 14.2889 12.1713 14.129 12.2129 13.9291C12.2546 13.5293 12.4628 13.1295 12.7961 12.8096L14.2958 11.3704C15.1706 10.5308 15.5039 10.2109 16.5036 9.81113C18.2533 9.05149 20.0029 9.01152 22.3773 9.73116ZM31.1254 11.97L32.0002 10.5308C32.2918 11.4903 31.9169 12.5697 31.0421 13.1695C30.209 13.7292 29.0842 13.7292 28.2511 13.2095C27.7267 12.874 27.3498 12.3692 27.1927 11.7903C27.1496 11.6162 27.1263 11.4356 27.1263 11.2505C27.1263 11.2131 27.1218 11.18 27.1137 11.1492C27.13 10.5426 27.4049 9.97783 27.8344 9.53129C28.2094 9.17147 28.6676 8.93159 29.1675 8.85162L28.251 10.3709C28.1677 10.4908 28.1677 10.6107 28.251 10.7307L28.3343 10.9306C28.7509 11.7302 29.6257 12.2099 30.5838 12.17H30.7921C30.9171 12.17 31.0421 12.09 31.1254 11.97ZM28.4177 14.2089C27.0847 14.9685 25.8349 15.9281 24.5852 17.1674L23.1101 18.5832L21.988 17.3812L23.4189 16.008C24.6686 14.8086 25.6684 13.6092 26.4598 12.3298C26.7098 12.9695 27.1263 13.4893 27.7512 13.889C27.9595 14.009 28.2094 14.1289 28.4177 14.2089ZM31.3337 30.9605C31.0004 31.2804 30.4589 31.2404 30.1256 30.9205L21.1458 21.2784C21.1254 21.2234 21.0919 21.1711 21.0443 21.1254L19.378 19.3263C19.3348 19.2848 19.2913 19.2543 19.2422 19.2343L17.5231 17.3884L19.2727 15.7093L29.9878 27.2147L29.2926 27.882C29.126 28.042 29.126 28.2819 29.2926 28.4418C29.3759 28.5217 29.4592 28.5617 29.5842 28.5617C29.7091 28.5617 29.7924 28.5217 29.8757 28.4418L30.5384 27.8058L31.0889 28.3969L30.459 29.0015C30.2923 29.1614 30.2923 29.4013 30.459 29.5612C30.5422 29.6412 30.6256 29.6812 30.7505 29.6812C30.8755 29.6812 30.9588 29.6412 31.0421 29.5612L31.6394 28.9881L31.8753 29.2414C32.0836 29.4412 32.1669 29.6412 32.1669 29.881C32.1669 30.081 32.0836 30.2809 31.9169 30.4408L31.3337 30.9605ZM18.9873 20.1811L20.1274 21.4058L17.5034 23.924C17.2436 24.1734 16.9612 24.4748 16.655 24.8289L16.337 24.5237C16.1704 24.3638 15.9204 24.3638 15.7538 24.5237C15.5872 24.6837 15.5872 24.9235 15.7538 25.0834L16.1366 25.4509C15.9753 25.6508 15.8081 25.8634 15.635 26.0889L15.1706 25.6432C15.004 25.4833 14.754 25.4833 14.5874 25.6432C14.4208 25.8031 14.4208 26.043 14.5874 26.2029L15.1456 26.7387C14.9267 27.0348 14.6991 27.3491 14.4624 27.6822C14.4501 27.6507 14.4371 27.6194 14.424 27.5881L14.4189 27.5757C14.4068 27.5472 14.3941 27.5188 14.3813 27.4905C14.3626 27.4486 14.3431 27.4071 14.3225 27.3661C14.3082 27.3372 14.2934 27.3084 14.2783 27.2798C14.276 27.2756 14.2739 27.2714 14.2716 27.2672C14.2702 27.2645 14.2688 27.2619 14.2674 27.2592C14.0123 26.7834 13.6463 26.353 13.1294 26.043C12.8795 25.8831 12.6296 25.7631 12.3796 25.6831C14.2542 24.4837 15.5456 23.5242 16.2954 22.7646L18.9873 20.1811ZM9.83847 27.962L8.96366 29.4013C8.67203 28.4418 9.04695 27.3623 9.9219 26.7627C10.3385 26.4828 10.8383 26.3229 11.3382 26.3229C11.8381 26.3229 12.2964 26.4428 12.7129 26.7226C12.9744 26.8899 13.1988 27.0997 13.3782 27.3393C13.6701 27.741 13.8377 28.2151 13.8377 28.7216C13.8377 28.7567 13.8417 28.7881 13.8488 28.8173C13.8232 29.4108 13.5508 29.9627 13.1295 30.4008C12.7546 30.7606 12.2963 31.0005 11.7964 31.0804L12.7129 29.5612C12.7962 29.4412 12.7962 29.3213 12.7129 29.2014L12.6296 29.0015C12.213 28.2019 11.3382 27.6821 10.3801 27.7621H10.1717C10.0468 27.7621 9.9218 27.8421 9.83847 27.962Z" fill="#D3D1D1"/>
</svg>
